<?xml version="1.0" encoding="utf-8"?>
<!-- Generator: Adobe Illustrator 24.1.2, SVG Export Plug-In . SVG Version: 6.00 Build 0)  -->
<svg version="1.1" id="Layer_1" xmlns="http://www.w3.org/2000/svg" xmlns:xlink="http://www.w3.org/1999/xlink" x="0px" y="0px"
	 viewBox="0 0 165 135" style="enable-background:new 0 0 165 135;" xml:space="preserve">
<style type="text/css">
	.st0{clip-path:url(#SVGID_2_);}
	.st1{fill:#322366;}
	.st2{fill:url(#SVGID_5_);}
	.st3{fill:url(#SVGID_6_);}
	.st4{fill:#FFFFFF;}
	.st5{fill:#7D58FF;}
	.st6{fill:#191133;}
	.st7{fill:#4B3499;}
	.st8{fill:#E5DDFF;}
	.st9{fill:#6446CC;}
	.st10{clip-path:url(#SVGID_8_);fill:#937AD0;}
	.st11{clip-path:url(#SVGID_8_);}
	.st12{opacity:0.1;fill:#44257D;}
	.st13{opacity:0.3;fill:url(#SVGID_9_);}
	.st14{fill:#44277C;}
	.st15{fill:#B3B5B6;}
	.st16{fill:#9A9999;}
	.st17{fill:#8B6FAF;}
	.st18{fill:#CDCCCC;}
	.st19{fill:#F2F2F2;}
	.st20{fill:#D9D9D9;}
	.st21{fill:#44257D;}
	.st22{fill:#D7D9DA;}
	.st23{fill:#1F2020;}
	.st24{fill:url(#SVGID_10_);}
	.st25{fill:url(#SVGID_11_);}
	.st26{fill:url(#SVGID_12_);}
	.st27{fill:url(#SVGID_13_);}
	.st28{fill:url(#SVGID_14_);}
	.st29{fill:#B3B3B3;}
	.st30{fill:url(#SVGID_15_);}
	.st31{fill:url(#SVGID_16_);}
	.st32{fill:#FFD600;}
	.st33{fill:url(#SVGID_17_);}
	.st34{fill:url(#SVGID_18_);}
	.st35{fill:#FFEA7F;}
	.st36{opacity:0.5;fill:#44277C;}
	.st37{fill:url(#SVGID_19_);}
	.st38{fill:url(#SVGID_20_);}
	.st39{fill:url(#SVGID_21_);}
	.st40{fill:url(#SVGID_22_);}
	.st41{fill:url(#SVGID_23_);}
	.st42{fill:url(#SVGID_24_);}
	.st43{fill:url(#SVGID_25_);}
	.st44{fill:url(#SVGID_26_);}
	.st45{fill:url(#SVGID_27_);}
	.st46{fill:url(#SVGID_28_);}
	.st47{fill:url(#SVGID_29_);}
	.st48{fill:url(#SVGID_30_);}
	.st49{clip-path:url(#SVGID_32_);fill:#3D51FF;}
	.st50{opacity:0.3;clip-path:url(#SVGID_32_);}
	.st51{opacity:0.3;fill:#CBBCFF;}
	.st52{fill:#CBBCFF;}
	.st53{clip-path:url(#SVGID_32_);}
	.st54{opacity:0.1;}
	.st55{fill:#2D136D;}
	.st56{opacity:0.5;}
	.st57{filter:url(#Adobe_OpacityMaskFilter);}
	.st58{clip-path:url(#SVGID_35_);}
	.st59{clip-path:url(#SVGID_38_);fill:url(#SVGID_39_);}
	.st60{clip-path:url(#SVGID_35_);mask:url(#SVGID_36_);fill:url(#SVGID_40_);}
	.st61{clip-path:url(#SVGID_42_);fill:#1F2020;}
	.st62{clip-path:url(#SVGID_44_);fill:#1F2020;}
	.st63{clip-path:url(#SVGID_46_);fill:url(#SVGID_47_);}
	.st64{clip-path:url(#SVGID_49_);fill:url(#SVGID_50_);}
	.st65{clip-path:url(#SVGID_52_);fill:url(#SVGID_53_);}
	.st66{clip-path:url(#SVGID_55_);fill:url(#SVGID_56_);}
	.st67{clip-path:url(#SVGID_58_);fill:url(#SVGID_59_);}
	.st68{clip-path:url(#SVGID_61_);fill:url(#SVGID_62_);}
	.st69{clip-path:url(#SVGID_64_);fill:url(#SVGID_65_);}
	.st70{fill:#FACD00;}
	.st71{clip-path:url(#SVGID_67_);fill:url(#SVGID_68_);}
	.st72{clip-path:url(#SVGID_70_);fill:url(#SVGID_71_);}
	.st73{fill:url(#SVGID_72_);}
	.st74{filter:url(#Adobe_OpacityMaskFilter_1_);}
	.st75{clip-path:url(#SVGID_75_);}
	.st76{clip-path:url(#SVGID_78_);fill:url(#SVGID_79_);}
	.st77{clip-path:url(#SVGID_75_);mask:url(#SVGID_76_);fill:url(#SVGID_80_);}
	.st78{fill:#9E247B;}
	.st79{clip-path:url(#SVGID_82_);fill:url(#SVGID_83_);}
	.st80{clip-path:url(#SVGID_85_);fill:url(#SVGID_86_);}
	.st81{clip-path:url(#SVGID_88_);fill:url(#SVGID_89_);}
	.st82{clip-path:url(#SVGID_91_);fill:url(#SVGID_92_);}
	.st83{clip-path:url(#SVGID_94_);fill:url(#SVGID_95_);}
	.st84{clip-path:url(#SVGID_97_);fill:url(#SVGID_98_);}
	.st85{clip-path:url(#SVGID_100_);fill:url(#SVGID_101_);}
	.st86{fill:#330072;}
	.st87{clip-path:url(#SVGID_103_);fill:url(#SVGID_104_);}
	.st88{clip-path:url(#SVGID_106_);fill:url(#SVGID_107_);}
	.st89{fill:url(#SVGID_108_);}
	.st90{fill:#AAAAAA;}
	.st91{fill:#C66FB2;}
	.st92{opacity:0.75;fill:url(#SVGID_109_);}
	.st93{fill:#4316B2;}
	.st94{fill:#8A6FAE;}
	.st95{fill:#442D7D;}
	.st96{fill:#8D8D8D;}
	.st97{fill:#321F58;}
	.st98{fill:#888383;}
	.st99{fill:#6D6A6B;}
	.st100{fill:#B7B7B7;}
	.st101{fill:#3C296C;}
	.st102{fill:#1F0E30;}
	.st103{fill:#C3C9CD;}
	.st104{fill:#A1AEB5;}
	.st105{fill:#859398;}
	.st106{fill:#5D9DA4;}
	.st107{fill:#33858D;}
	.st108{fill:#84AFB7;}
	.st109{fill:#ECEAEA;}
	.st110{fill:#B6B6B7;}
	.st111{fill:#383B3F;}
	.st112{fill:#FDD500;}
	.st113{fill:#A1007D;}
	.st114{fill:#B54593;}
	.st115{fill:#BF5C9F;}
	.st116{fill:#CC79AF;}
	.st117{fill:#6D7477;}
	.st118{fill:url(#SVGID_110_);}
	.st119{clip-path:url(#SVGID_112_);fill:#330072;}
	.st120{clip-path:url(#SVGID_112_);}
	.st121{fill:#FFDC23;}
	.st122{fill:url(#SVGID_113_);}
	.st123{opacity:0.3;}
	.st124{opacity:0.3;fill:#FFFFFF;}
	.st125{clip-path:url(#SVGID_115_);fill:#B6DCFF;}
	.st126{clip-path:url(#SVGID_115_);}
	.st127{fill:#0F27AA;}
	.st128{fill:#C3C9EA;}
	.st129{fill:#6F7DCC;}
	.st130{fill:#00D7BD;}
	.st131{fill:#BFF5EE;}
	.st132{fill:#66E7D7;}
	.st133{fill:#A1C2FF;}
	.st134{fill:#E7F0FF;}
	.st135{fill:#C7DAFF;}
	.st136{opacity:0.5;clip-path:url(#SVGID_115_);fill:#31005D;}
	.st137{clip-path:url(#SVGID_115_);fill:url(#SVGID_116_);}
	.st138{clip-path:url(#SVGID_115_);fill:none;stroke:#FFFFFF;stroke-width:0.64;stroke-miterlimit:10;}
	.st139{fill:none;stroke:#FFFFFF;stroke-width:0.64;stroke-miterlimit:10;}
	.st140{fill:none;stroke:#FFFFFF;stroke-width:0.448;stroke-miterlimit:10;}
	.st141{opacity:0.2;clip-path:url(#SVGID_115_);}
	.st142{fill:#31005D;stroke:#31005D;stroke-width:0.16;stroke-miterlimit:10;}
	.st143{clip-path:url(#SVGID_115_);fill:#31005D;stroke:#31005D;stroke-width:0.16;stroke-miterlimit:10;}
	.st144{clip-path:url(#SVGID_115_);fill:url(#SVGID_117_);}
	.st145{clip-path:url(#SVGID_119_);fill:#A1007D;}
	.st146{clip-path:url(#SVGID_119_);}
	.st147{fill:#1E152F;}
	.st148{fill:#9678D3;}
	.st149{fill:#2C0062;}
	.st150{fill:#C57CB0;}
	.st151{fill:none;stroke:#871F69;stroke-width:1.3419;stroke-miterlimit:10;}
	.st152{fill:#B65B9C;}
	.st153{fill:#871F69;}
	.st154{fill:none;stroke:#CE91BD;stroke-width:0.8946;stroke-miterlimit:10;}
	.st155{fill:#5A1546;}
	.st156{fill:#865599;}
	.st157{clip-path:url(#SVGID_123_);}
	.st158{fill:none;stroke:#9678D3;stroke-width:0.8946;stroke-miterlimit:10;}
	.st159{fill:#6B5697;}
	.st160{fill:#D8CCEE;}
	.st161{fill:none;stroke:#BDABE3;stroke-width:0.4473;stroke-miterlimit:10;}
	.st162{fill:#BDABE3;}
	.st163{fill:#EADFF7;}
	.st164{fill:#664095;}
	.st165{fill:none;stroke:#EADFF7;stroke-width:0.3797;stroke-miterlimit:10;}
	.st166{fill:#E7C8DE;}
	.st167{fill:#E5DDF4;}
</style>
<g>
	<defs>
		<path id="SVGID_114_" d="M161,135H4c-2.21,0-4-1.79-4-4V4c0-2.21,1.79-4,4-4h157c2.21,0,4,1.79,4,4v127
			C165,133.21,163.21,135,161,135z"/>
	</defs>
	<clipPath id="SVGID_2_">
		<use xlink:href="#SVGID_114_"  style="overflow:visible;"/>
	</clipPath>
	<rect style="clip-path:url(#SVGID_2_);fill:#B6DCFF;" width="165" height="135"/>
	<g class="st0">
		<polygon class="st127" points="67.13,87.55 49.6,102.73 67.13,117.92 102.2,117.92 119.73,102.73 102.2,87.55 		"/>
		<polygon class="st128" points="119.73,102.73 119.73,108.56 102.2,123.75 102.2,117.92 		"/>
		<rect x="67.13" y="117.92" class="st129" width="35.07" height="5.83"/>
		<polygon class="st127" points="49.6,102.73 49.6,108.56 67.13,123.75 67.13,117.92 		"/>
		<polygon class="st127" points="49.6,102.73 49.6,108.56 67.13,123.75 67.13,117.92 		"/>
	</g>
	<g class="st0">
		<polygon class="st130" points="67.13,75.91 49.6,91.09 67.13,106.27 102.2,106.27 119.73,91.09 102.2,75.91 		"/>
		<polygon class="st131" points="119.73,91.09 119.73,96.92 102.2,112.1 102.2,106.27 		"/>
		<rect x="67.13" y="106.27" class="st132" width="35.07" height="5.83"/>
		<polygon class="st130" points="49.6,91.09 49.6,96.92 67.13,112.1 67.13,106.27 		"/>
		<polygon class="st130" points="49.6,91.09 49.6,96.92 67.13,112.1 67.13,106.27 		"/>
	</g>
	<g class="st0">
		<polygon class="st133" points="67.13,64.26 49.6,79.44 67.13,94.63 102.2,94.63 119.73,79.44 102.2,64.26 		"/>
		<polygon class="st134" points="119.73,79.44 119.73,85.28 102.2,100.46 102.2,94.63 		"/>
		<rect x="67.13" y="94.63" class="st135" width="35.07" height="5.83"/>
		<polygon class="st133" points="49.6,79.44 49.6,85.28 67.13,100.46 67.13,94.63 		"/>
		<polygon class="st133" points="49.6,79.44 49.6,85.28 67.13,100.46 67.13,94.63 		"/>
	</g>
	<polygon style="opacity:0.5;clip-path:url(#SVGID_2_);fill:#31005D;" points="67.13,100.46 52.95,88.18 49.6,91.09 67.13,106.27 
		95.54,106.23 102.2,100.46 	"/>
	<polygon style="opacity:0.5;clip-path:url(#SVGID_2_);fill:#31005D;" points="67.13,112.1 52.95,99.83 49.6,102.73 67.13,117.92 
		95.54,117.87 102.2,112.1 	"/>
	
		<radialGradient id="SVGID_4_" cx="84.6633" cy="-732.9519" r="9.693" gradientTransform="matrix(1 0 0 0.4149 0 383.4453)" gradientUnits="userSpaceOnUse">
		<stop  offset="0" style="stop-color:#A1C2FF"/>
		<stop  offset="1" style="stop-color:#A1C2FF;stop-opacity:0"/>
	</radialGradient>
	<ellipse style="clip-path:url(#SVGID_2_);fill:url(#SVGID_4_);" cx="84.66" cy="79.36" rx="9.69" ry="4.02"/>
	<path style="clip-path:url(#SVGID_2_);fill:none;stroke:#FFFFFF;stroke-width:0.64;stroke-miterlimit:10;" d="M110.64,30.6h25.81
		c2.46-0.3,4.45-2.51,4.45-5.23V6.62"/>
	<polygon style="clip-path:url(#SVGID_2_);fill:none;stroke:#FFFFFF;stroke-width:0.64;stroke-miterlimit:10;" points="
		109.32,32.28 110.71,31.48 110.71,29.89 109.32,29.09 107.94,29.89 107.94,31.48 	"/>
	<polygon style="clip-path:url(#SVGID_2_);fill:none;stroke:#FFFFFF;stroke-width:0.64;stroke-miterlimit:10;" points="85.57,27.17 
		86.63,27.78 86.63,28.99 85.57,29.6 84.51,28.99 84.51,27.78 	"/>
	<path style="clip-path:url(#SVGID_2_);fill:none;stroke:#FFFFFF;stroke-width:0.64;stroke-miterlimit:10;" d="M85,28.39H58.15
		c-1.8,0-3.27-1.46-3.27-3.27v-3.42c0-1.8-1.46-3.27-3.27-3.27h-8.56c-1.8,0-3.27,1.46-3.27,3.27v1.78c0,1.8-1.46,3.27-3.27,3.27
		h-5.27"/>
	<g class="st0">
		<polygon class="st139" points="25.37,75.11 20.38,72.23 15.39,75.11 15.39,80.88 20.38,83.76 25.37,80.88 		"/>
		<polyline class="st139" points="25.37,75.11 20.38,77.99 20.38,83.76 		"/>
		<line class="st139" x1="15.39" y1="75.11" x2="20.38" y2="77.99"/>
	</g>
	<g class="st0">
		<polygon class="st140" points="31.26,24.79 27.76,22.77 24.27,24.79 24.27,28.83 27.76,30.85 31.26,28.83 		"/>
		<polyline class="st140" points="31.26,24.79 27.76,26.81 27.76,30.85 		"/>
		<line class="st140" x1="24.27" y1="24.79" x2="27.76" y2="26.81"/>
	</g>
	<g class="st0">
		<polygon class="st139" points="146,9.25 141,6.36 136.01,9.25 136.01,15.01 141,17.9 146,15.01 		"/>
		<polyline class="st139" points="146,9.25 141,12.13 141,17.9 		"/>
		<line class="st139" x1="136.01" y1="9.25" x2="141" y2="12.13"/>
	</g>
	<g style="opacity:0.2;clip-path:url(#SVGID_2_);">
		<g>
			<g>
				<polygon class="st142" points="89.75,80.03 89.69,79.94 104.59,70.56 92.57,66.53 92.65,66.47 108.28,54.72 108.35,54.8 
					92.79,66.49 104.83,70.53 				"/>
			</g>
			<g>
				<polygon class="st142" points="92.71,46.87 92.64,46.79 104.48,37.4 85.54,28.43 85.6,28.34 104.66,37.39 				"/>
			</g>
			<g>
				<polygon class="st142" points="59.12,68.69 53.64,58.37 52.77,51.81 53.57,38.6 53.58,38.59 65.32,23.17 65.4,23.23 
					53.67,38.64 52.88,51.81 53.74,58.35 59.21,68.65 				"/>
			</g>
			<g>
				<polygon class="st142" points="84.46,81.33 84.45,81.33 72.92,79.6 72.94,79.5 84.46,81.23 89.71,79.93 89.73,80.03 				"/>
			</g>
			<g>
				<polygon class="st142" points="103.24,75.76 103.16,75.7 114.66,60.53 108.29,54.8 92.65,46.88 73.85,40.4 59.08,36.94 
					59.11,36.84 73.88,40.3 92.69,46.78 108.35,54.72 114.8,60.52 114.77,60.56 				"/>
			</g>
			<g>
				<path class="st142" d="M89.65,80.06l0.02-0.09l2.95-13.48l0-19.66l-7.1-18.4L72.63,26l1.29,14.35l4.47,17.08l0,0.01l-4.25,14.41
					l-1.16,7.79l-0.07-0.05l-7.57-5.19l-6.23-5.72l3.1-13.14l-3.17-18.67l0.01-0.01l6.25-13.64l-0.1-0.04l18.95-5.16L84.19,18
					l0.01,0.03l11.3,1.37l7.49,5.18l0.03-0.01l0,0.04l0.29,0.2l-0.28-0.1l1.58,12.67l3.75,17.37l0,0.01l-3.6,15.78l-1.52,5.22
					L89.65,80.06z M85.63,28.42l7.1,18.4l0,19.68l-2.94,13.4l13.36-4.22l1.51-5.16l3.6-15.77l-3.75-17.36l-1.58-12.7L85.63,28.42z
					 M59.22,68.65l6.18,5.67l7.49,5.14l1.14-7.63l4.25-14.41l-4.46-17.07l-1.3-14.39l-7.13-2.71L59.15,36.9l3.17,18.66l0,0.01
					L59.22,68.65z M84.28,18.17l1.32,10.15l17.21-3.69L84.28,18.17z M72.71,25.9l12.77,2.42l-1.33-10.16L72.71,25.9z M65.53,23.2
					l7.03,2.67l11.32-7.67L65.53,23.2z M84.64,18.19l18,6.28l-7.17-4.97L84.64,18.19z"/>
			</g>
			<g>
				<polygon class="st142" points="74.04,71.87 62.2,55.55 62.22,55.52 73.84,40.31 85.54,28.34 85.6,28.43 73.9,40.38 62.33,55.55 
					74.13,71.81 				"/>
			</g>
			<g>
				<polygon class="st142" points="53.63,38.67 53.6,38.57 59.07,36.84 72.54,25.89 72.6,25.97 59.12,36.94 59.11,36.94 				"/>
			</g>
			<g>
				
					<rect x="47.87" y="44.3" transform="matrix(0.3869 -0.9221 0.9221 0.3869 -6.5862 78.7888)" class="st142" width="16.18" height="0.1"/>
			</g>
			<g>
				
					<rect x="76.59" y="52.08" transform="matrix(0.8046 -0.5938 0.5938 0.8046 -14.2483 60.9591)" class="st142" width="17.83" height="0.1"/>
			</g>
			<g>
				<polygon class="st142" points="108.36,54.78 108.27,54.74 114.66,41.1 104.55,37.44 104.58,37.34 114.8,41.04 				"/>
			</g>
			<g>
				<path class="st142" d="M104.75,70.58l-0.07-0.07l10-10V41.09l-11.74-16.42l0.08-0.07l6.35,6l5.41,10.46v0.01l0.79,6.41
					l-0.79,13.07L104.75,70.58z M114.78,41.91v16.92l0.69-11.35L114.78,41.91z M103.33,25.04l11.02,15.41l-5.07-9.8L103.33,25.04z"
					/>
			</g>
			<g>
				<path class="st142" d="M89.94,80.04l-0.22-0.01L72.91,79.6L59.14,68.72l-0.02,0l-0.01-0.03l-6.38-16.97l0.11,0.04l9.43,3.74
					l16.08,1.87l0.01,0.01l14.44,9.14l-18.58,5.33L89.94,80.04z M72.95,79.5l16.55,0.43l-15.43-8.04l-14.69-3.12L72.95,79.5z
					 M59.2,68.62l14.88,3.16l18.47-5.3l-14.23-9.01L62.25,55.6l-9.33-3.7L59.2,68.62z"/>
			</g>
		</g>
		<g>
			<g>
				<path class="st142" d="M93.08,46.83c0,0.22-0.18,0.4-0.4,0.4c-0.22,0-0.4-0.18-0.4-0.4c0-0.22,0.18-0.4,0.4-0.4
					C92.9,46.43,93.08,46.61,93.08,46.83z"/>
			</g>
			<g>
				<path class="st142" d="M93.08,66.46c0,0.22-0.18,0.4-0.4,0.4c-0.22,0-0.4-0.18-0.4-0.4c0-0.22,0.18-0.4,0.4-0.4
					C92.9,66.06,93.08,66.24,93.08,66.46z"/>
			</g>
			<g>
				<circle class="st142" cx="78.34" cy="57.43" r="0.4"/>
			</g>
			<g>
				<circle class="st142" cx="73.84" cy="40.33" r="0.4"/>
			</g>
			<g>
				<path class="st142" d="M85.97,28.39c0,0.22-0.18,0.4-0.4,0.4c-0.22,0-0.4-0.18-0.4-0.4c0-0.22,0.18-0.4,0.4-0.4
					C85.79,27.98,85.97,28.16,85.97,28.39z"/>
			</g>
			<g>
				<path class="st142" d="M72.97,25.93c0,0.22-0.18,0.4-0.4,0.4c-0.22,0-0.4-0.18-0.4-0.4c0-0.22,0.18-0.4,0.4-0.4
					C72.79,25.53,72.97,25.71,72.97,25.93z"/>
			</g>
			<g>
				<circle class="st142" cx="62.27" cy="55.5" r="0.4"/>
			</g>
			<g>
				<path class="st142" d="M105.04,37.39c0,0.26-0.21,0.47-0.47,0.47c-0.26,0-0.47-0.21-0.47-0.47c0-0.26,0.21-0.47,0.47-0.47
					C104.83,36.92,105.04,37.13,105.04,37.39z"/>
			</g>
			<g>
				<path class="st142" d="M108.83,54.76c0,0.26-0.21,0.47-0.47,0.47c-0.26,0-0.47-0.21-0.47-0.47c0-0.26,0.21-0.47,0.47-0.47
					C108.62,54.29,108.83,54.5,108.83,54.76z"/>
			</g>
			<g>
				<path class="st142" d="M105.04,70.54c0,0.26-0.21,0.47-0.47,0.47c-0.26,0-0.47-0.21-0.47-0.47c0-0.26,0.21-0.47,0.47-0.47
					C104.83,70.07,105.04,70.28,105.04,70.54z"/>
			</g>
			<g>
				<path class="st142" d="M74.42,71.84c0,0.26-0.21,0.47-0.47,0.47c-0.26,0-0.47-0.21-0.47-0.47c0-0.26,0.21-0.47,0.47-0.47
					C74.21,71.37,74.42,71.58,74.42,71.84z"/>
			</g>
			<g>
				<circle class="st142" cx="59.09" cy="36.92" r="0.47"/>
			</g>
		</g>
	</g>
	<path style="clip-path:url(#SVGID_2_);fill:#31005D;stroke:#31005D;stroke-width:0.16;stroke-miterlimit:10;" d="M116.22,46.83
		c0-0.42-0.34-0.75-0.75-0.75c-0.02,0-0.04,0-0.06,0.01l-0.6-4.56c0.23-0.06,0.41-0.27,0.41-0.53c0-0.3-0.24-0.55-0.55-0.55
		c-0.07,0-0.14,0.02-0.21,0.04l-4.76-9.2c0.19-0.14,0.32-0.36,0.32-0.61c0-0.42-0.34-0.75-0.75-0.75c-0.17,0-0.33,0.06-0.45,0.16
		l-5.51-5.2c0.05-0.07,0.08-0.16,0.08-0.25c0-0.25-0.21-0.46-0.46-0.46c-0.13,0-0.24,0.05-0.33,0.14l-6.47-4.48
		c0.03-0.08,0.05-0.18,0.05-0.27c0-0.42-0.34-0.75-0.75-0.75c-0.32,0-0.59,0.2-0.7,0.48l-10.07-1.23c-0.01-0.3-0.25-0.53-0.54-0.53
		c-0.3,0-0.55,0.24-0.55,0.55c0,0.02,0,0.04,0.01,0.07l-4.23,1.15c-0.11-0.28-0.38-0.48-0.7-0.48c-0.42,0-0.75,0.34-0.75,0.75
		c0,0.04,0.01,0.08,0.01,0.12l-11.9,3.24c-0.11-0.28-0.38-0.48-0.7-0.48c-0.42,0-0.75,0.34-0.75,0.75c0,0.22,0.09,0.41,0.24,0.55
		L54.02,37.98c-0.11-0.07-0.25-0.11-0.39-0.11c-0.42,0-0.75,0.34-0.75,0.75c0,0.37,0.27,0.68,0.63,0.74l-0.78,11.93
		c-0.23,0.07-0.39,0.27-0.39,0.52c0,0.26,0.18,0.48,0.42,0.53l0.7,5.3c-0.33,0.08-0.58,0.37-0.58,0.73c0,0.42,0.34,0.75,0.75,0.75
		c0.1,0,0.2-0.02,0.28-0.06l4.95,9.32c-0.22,0.07-0.38,0.27-0.38,0.52c0,0.3,0.24,0.55,0.55,0.55c0.21,0,0.4-0.12,0.49-0.3
		l5.42,4.91c-0.1,0.13-0.17,0.29-0.17,0.47c0,0.42,0.34,0.75,0.75,0.75c0.23,0,0.44-0.11,0.57-0.27l6.25,4.29
		c-0.01,0.05-0.02,0.1-0.02,0.15c0,0.3,0.24,0.55,0.55,0.55c0.21,0,0.38-0.11,0.48-0.28l10.3,1.55c0,0.01,0,0.02,0,0.03
		c0,0.42,0.34,0.75,0.75,0.75c0.42,0,0.75-0.34,0.75-0.75c0-0.05-0.01-0.09-0.01-0.14l3.98-1.18c0,0.01,0,0.01,0,0.02
		c0,0.3,0.24,0.55,0.55,0.55s0.55-0.24,0.55-0.55c0-0.12-0.04-0.22-0.1-0.31l12.33-3.65c0.11,0.27,0.38,0.47,0.7,0.47
		c0.42,0,0.75-0.34,0.75-0.75c0-0.22-0.09-0.41-0.24-0.55l10.63-14.02c0.11,0.07,0.25,0.11,0.39,0.11c0.42,0,0.75-0.34,0.75-0.75
		c0-0.37-0.27-0.68-0.63-0.74l0.72-12.21C115.91,47.55,116.22,47.23,116.22,46.83z M113.92,60.53c0,0.05,0.01,0.09,0.01,0.14
		l-3.92,1.16c-0.08-0.19-0.23-0.35-0.42-0.44l5.76-13.8l-0.72,12.19C114.24,59.79,113.92,60.12,113.92,60.53z M103.14,74.98
		c-0.31,0-0.57,0.18-0.69,0.45l-5.86-1.92c0.02-0.07,0.03-0.13,0.03-0.2c0-0.19-0.06-0.36-0.16-0.51l12.09-10.01
		c0.06,0.06,0.13,0.12,0.21,0.16l-5.38,12.08C103.3,75,103.22,74.98,103.14,74.98z M52.88,51.26l0.67-10.28v16.2l-0.64-4.84
		c0.28-0.02,0.51-0.25,0.51-0.54C53.43,51.51,53.18,51.26,52.88,51.26z M94.68,19.53c0,0.01,0,0.02,0,0.03
		c0,0.34,0.23,0.63,0.54,0.72l-1.01,6.26c-0.33,0-0.61,0.18-0.77,0.45l-14.09-7.16c0.02-0.06,0.04-0.13,0.04-0.2L94.68,19.53z
		 M66.27,74.37c-0.06-0.32-0.34-0.57-0.67-0.6c-0.34-1.97-1.08-7.12-1.63-11.09c0.21-0.05,0.38-0.16,0.51-0.32l13.86,7.79
		c-0.06,0.12-0.1,0.25-0.1,0.4c0,0.07,0.01,0.14,0.03,0.2L66.27,74.37z M54.1,39.21l5.12,4.62c-0.11,0.15-0.17,0.33-0.17,0.53
		c0,0.33,0.18,0.61,0.44,0.77l-5.61,12.54c-0.05-0.02-0.1-0.03-0.16-0.03V39.36C53.86,39.35,53.99,39.29,54.1,39.21z M63.67,29.6
		c0.37,0,0.67-0.26,0.74-0.61l10.52,3.48c-0.04,0.1-0.06,0.2-0.06,0.32c0,0.13,0.03,0.26,0.09,0.38L60.59,43.75
		c-0.11-0.12-0.24-0.2-0.4-0.25l3.33-13.91C63.57,29.59,63.62,29.6,63.67,29.6z M78.65,20.32c0.27,0,0.5-0.14,0.63-0.34l14.09,7.16
		c-0.03,0.09-0.06,0.2-0.06,0.3c0,0.05,0.01,0.1,0.02,0.15l-16.8,4.78C76.43,32.16,76.23,32,76,31.94l2.57-11.63
		C78.6,20.31,78.62,20.32,78.65,20.32z M108.99,31.38l-3.01,11.44c-0.08-0.02-0.16-0.04-0.25-0.04c-0.12,0-0.24,0.02-0.34,0.07
		L94.75,28.14c0.14-0.11,0.25-0.26,0.31-0.44l13.47,2.84c-0.01,0.05-0.01,0.09-0.01,0.14C108.52,31,108.71,31.27,108.99,31.38z
		 M108.36,61.88l-12.98-2.92c0-0.03,0.01-0.05,0.01-0.08c0-0.27-0.13-0.51-0.32-0.68l10.25-13.74c0.13,0.07,0.27,0.11,0.42,0.11
		c0.07,0,0.14-0.01,0.21-0.03l3.02,16.77C108.68,61.39,108.45,61.6,108.36,61.88z M76.52,33.25l12.69,8.18
		c-0.07,0.14-0.12,0.3-0.12,0.47c0,0.19,0.05,0.36,0.14,0.51l-12.8,9.15c-0.15-0.17-0.36-0.29-0.6-0.31V33.68
		C76.13,33.65,76.38,33.49,76.52,33.25z M76.52,51.68l12.8-9.14c0.18,0.22,0.46,0.37,0.77,0.37c0.06,0,0.11-0.01,0.16-0.02
		l3.94,15.16c-0.22,0.08-0.4,0.23-0.5,0.44l-17.08-6.12c0.02-0.07,0.03-0.15,0.03-0.23C76.65,51.96,76.6,51.81,76.52,51.68z
		 M94.49,57.99c-0.05,0-0.09,0.01-0.14,0.01l-3.94-15.16c0.34-0.11,0.6-0.4,0.67-0.76l13.78,1.5c0,0.03-0.01,0.06-0.01,0.1
		c0,0.29,0.14,0.54,0.35,0.7L94.94,58.11C94.81,58.03,94.65,57.99,94.49,57.99z M104.88,43.43l-13.79-1.5c0-0.01,0-0.02,0-0.03
		c0-0.44-0.28-0.8-0.67-0.94l3.56-12.67c0.07,0.02,0.15,0.03,0.23,0.03c0.15,0,0.28-0.04,0.41-0.1l10.64,14.7
		C105.08,43.04,104.94,43.22,104.88,43.43z M93.84,28.24l-3.56,12.68c-0.06-0.01-0.12-0.02-0.18-0.02c-0.33,0-0.61,0.16-0.8,0.4
		l-12.71-8.19c0.04-0.1,0.06-0.21,0.06-0.32c0-0.1-0.02-0.19-0.05-0.28l16.78-4.78C93.46,27.96,93.62,28.14,93.84,28.24z
		 M75.68,33.68v17.57c-0.29,0.03-0.54,0.19-0.68,0.43l-14.24-6.99c0.04-0.1,0.06-0.21,0.06-0.33c0-0.18-0.05-0.34-0.14-0.47
		L75.03,33.3C75.18,33.51,75.41,33.65,75.68,33.68z M60.69,44.82l14.24,6.99c-0.04,0.1-0.06,0.21-0.06,0.32
		c0,0.19,0.06,0.36,0.15,0.5l-10.58,8.6c-0.16-0.19-0.4-0.31-0.67-0.31c-0.04,0-0.09,0.01-0.13,0.01L60.18,45.2
		C60.39,45.14,60.57,45,60.69,44.82z M64.53,61.35l10.58-8.6c0.16,0.17,0.39,0.27,0.64,0.27c0.03,0,0.06-0.01,0.09-0.01l3.11,16.65
		c-0.22,0.04-0.41,0.17-0.54,0.35l-13.86-7.79c0.07-0.13,0.11-0.27,0.11-0.42C64.66,61.64,64.61,61.49,64.53,61.35z M79.13,69.65
		c-0.01,0-0.01,0-0.02,0L76,52.99c0.25-0.07,0.46-0.25,0.57-0.48l17.07,6.12c-0.03,0.08-0.04,0.17-0.04,0.26
		c0,0.17,0.05,0.32,0.13,0.45L79.81,69.97C79.65,69.78,79.41,69.65,79.13,69.65z M54.01,57.72l5.61-12.53
		c0.1,0.04,0.2,0.06,0.31,0.06c0.03,0,0.06-0.01,0.09-0.01l3.46,15.73c-0.26,0.09-0.46,0.28-0.56,0.54l-8.57-2.97
		c0.01-0.06,0.02-0.11,0.02-0.17C54.39,58.09,54.23,57.85,54.01,57.72z M79.9,70.1l13.91-10.64c0.16,0.19,0.4,0.32,0.68,0.32
		c0,0,0,0,0,0l1.08,12.66c-0.35,0.06-0.62,0.32-0.71,0.66L80.02,70.6c0-0.02,0.01-0.04,0.01-0.06C80.02,70.38,79.98,70.23,79.9,70.1
		z M95.73,72.41l-1.08-12.66c0.34-0.06,0.61-0.31,0.7-0.64l12.97,2.92c-0.01,0.05-0.01,0.09-0.01,0.14c0,0.18,0.06,0.35,0.15,0.49
		L96.36,72.68C96.2,72.52,95.98,72.41,95.73,72.41z M109.2,61.28c-0.03,0-0.05,0.01-0.08,0.01l-3.03-16.79
		c0.23-0.1,0.41-0.3,0.49-0.53l8.15,2.98c0.04,0.28,0.23,0.5,0.49,0.59l-5.75,13.78C109.37,61.3,109.29,61.28,109.2,61.28z
		 M114.72,46.78l-8.1-2.97c0.01-0.04,0.01-0.09,0.01-0.13c0-0.35-0.21-0.65-0.5-0.8l3.01-11.45c0.04,0.01,0.09,0.01,0.13,0.01
		c0.07,0,0.14-0.01,0.21-0.03l5.56,14.81C114.86,46.34,114.74,46.54,114.72,46.78z M108.58,30.39L95.1,27.55
		c0.01-0.04,0.01-0.08,0.01-0.12c0-0.44-0.32-0.81-0.74-0.88l1.01-6.24c0.02,0,0.04,0.01,0.06,0.01c0.24,0,0.45-0.12,0.59-0.29
		l12.65,10.21C108.63,30.28,108.6,30.34,108.58,30.39z M78.42,20.28l-2.57,11.63c-0.03,0-0.06-0.01-0.09-0.01
		c-0.33,0-0.61,0.18-0.76,0.44l-10.58-3.5c0-0.17-0.06-0.32-0.15-0.44l13.79-8.38C78.15,20.14,78.27,20.23,78.42,20.28z
		 M63.38,29.54l-3.34,13.92c-0.04,0-0.07-0.01-0.11-0.01c-0.24,0-0.46,0.1-0.62,0.25l-5.11-4.61c0.11-0.13,0.18-0.3,0.18-0.48
		c0-0.2-0.08-0.37-0.2-0.51l8.91-8.78C63.18,29.42,63.27,29.5,63.38,29.54z M54.31,58.68l8.58,2.97c-0.01,0.05-0.02,0.1-0.02,0.16
		c0,0.49,0.4,0.89,0.89,0.89c0.01,0,0.02,0,0.04,0c0.53,3.77,1.27,8.99,1.64,11.08c-0.08,0.01-0.16,0.03-0.24,0.07L54.14,58.92
		C54.21,58.85,54.27,58.77,54.31,58.68z M66.28,74.53l12.03-3.64c0.14,0.32,0.45,0.54,0.82,0.54c0.13,0,0.26-0.03,0.37-0.08
		l4.51,9.29c-0.12,0.08-0.22,0.18-0.28,0.32l-17.48-6.22C66.26,74.67,66.28,74.6,66.28,74.53z M84.4,80.53
		c-0.09,0-0.17,0.02-0.25,0.05l-4.51-9.3c0.18-0.12,0.3-0.31,0.36-0.52l14.85,2.48c0,0.02-0.01,0.05-0.01,0.07
		c0,0.16,0.05,0.31,0.12,0.45l-9.99,7.04C84.83,80.63,84.63,80.53,84.4,80.53z M114.66,41.55l0.6,4.57
		c-0.03,0.01-0.05,0.01-0.08,0.02l-5.37-14.32l4.53,8.76c-0.12,0.1-0.2,0.25-0.2,0.42C114.13,41.3,114.36,41.54,114.66,41.55z
		 M102.93,25.1c0.1,0,0.2-0.04,0.27-0.09l4.55,4.29l-10.64-8.59l5.4,3.74c-0.03,0.06-0.04,0.12-0.04,0.19
		C102.47,24.89,102.67,25.1,102.93,25.1z M83.62,18.3c0.08,0.19,0.28,0.33,0.5,0.33c0.25,0,0.46-0.17,0.52-0.4l9.57,1.16l-14.82,0.1
		c0-0.01,0-0.03,0-0.04L83.62,18.3z M77.95,19.84c0.01,0.02,0.01,0.03,0.02,0.05l-13.82,8.39c-0.08-0.07-0.17-0.12-0.26-0.15
		c0.4-1.47,0.91-3.25,1.22-4.21c0.06,0.02,0.12,0.03,0.19,0.03c0.42,0,0.75-0.34,0.75-0.75c0-0.04-0.01-0.08-0.01-0.12L77.95,19.84z
		 M64.97,23.87c-0.36,1.11-0.95,3.21-1.23,4.24c-0.02,0-0.05-0.01-0.07-0.01c-0.42,0-0.75,0.34-0.75,0.75c0,0.13,0.04,0.25,0.1,0.36
		l-8.46,8.33l10.37-13.7C64.94,23.85,64.96,23.86,64.97,23.87z M59.04,68.35C59.04,68.35,59.03,68.35,59.04,68.35l-4.85-9.11
		l10.89,14.68c-0.01,0.01-0.02,0.01-0.02,0.02l-5.48-4.96c0-0.03,0.01-0.06,0.01-0.09C59.58,68.6,59.34,68.35,59.04,68.35z
		 M72.88,78.89c-0.19,0-0.36,0.1-0.46,0.25l-6.19-4.25l17.4,6.19l-10.22-1.53c0.01-0.04,0.01-0.08,0.01-0.11
		C73.42,79.14,73.18,78.89,72.88,78.89z M89.99,79.55c-0.09-0.07-0.2-0.11-0.32-0.11c-0.23,0-0.43,0.15-0.51,0.35L85.1,81
		c-0.01-0.03-0.03-0.05-0.04-0.08l9.99-7.04c0.16,0.19,0.41,0.32,0.68,0.32c0.37,0,0.69-0.22,0.82-0.54l5.86,1.92
		c-0.01,0.05-0.02,0.1-0.02,0.16c0,0.05,0.01,0.09,0.01,0.14L89.99,79.55z M103.53,75.09c0,0-0.01-0.01-0.01-0.01l5.38-12.07
		c0.09,0.03,0.19,0.06,0.3,0.06c0.49,0,0.89-0.4,0.89-0.89c0-0.07-0.01-0.14-0.02-0.2l3.91-1.16c0.04,0.1,0.1,0.19,0.18,0.26
		L103.53,75.09z"/>
	
		<radialGradient id="SVGID_5_" cx="84.6633" cy="-732.7463" r="18.2766" gradientTransform="matrix(1 0 0 0.4149 0 383.4453)" gradientUnits="userSpaceOnUse">
		<stop  offset="0" style="stop-color:#A1C2FF"/>
		<stop  offset="1" style="stop-color:#A1C2FF;stop-opacity:0"/>
	</radialGradient>
	<ellipse style="clip-path:url(#SVGID_2_);fill:url(#SVGID_5_);" cx="84.66" cy="79.44" rx="18.28" ry="7.58"/>
	<path style="clip-path:url(#SVGID_2_);fill:none;stroke:#FFFFFF;stroke-width:0.64;stroke-miterlimit:10;" d="M20.19,72.16
		c0-1.12,1-2.04,2.24-2.06l23.4,0c1.25,0,2.25-1.01,2.25-2.26L48,47.29c0-1.25,1-2.26,2.25-2.26h8.18"/>
	<polygon style="clip-path:url(#SVGID_2_);fill:none;stroke:#FFFFFF;stroke-width:0.64;stroke-miterlimit:10;" points="59.96,42.26 
		58.16,43.31 58.16,45.39 59.96,46.43 61.77,45.39 61.77,43.31 	"/>
	<g class="st0">
		<circle class="st4" cx="148.2" cy="53.02" r="1.01"/>
		<circle class="st4" cx="140.78" cy="53.02" r="1.01"/>
		<circle class="st4" cx="133.36" cy="53.02" r="1.01"/>
		<circle class="st4" cx="125.94" cy="53.02" r="1.01"/>
		<circle class="st4" cx="148.2" cy="46.48" r="1.01"/>
		<circle class="st4" cx="140.78" cy="46.48" r="1.01"/>
		<circle class="st4" cx="133.36" cy="46.48" r="1.01"/>
		<circle class="st4" cx="125.94" cy="46.48" r="1.01"/>
		<circle class="st4" cx="155.54" cy="53.02" r="1.01"/>
		<circle class="st4" cx="155.54" cy="46.48" r="1.01"/>
		<circle class="st4" cx="148.2" cy="72.62" r="1.01"/>
		<circle class="st4" cx="140.78" cy="72.62" r="1.01"/>
		<circle class="st4" cx="133.36" cy="72.62" r="1.01"/>
		<circle class="st4" cx="125.94" cy="72.62" r="1.01"/>
		<circle class="st4" cx="148.2" cy="66.08" r="1.01"/>
		<circle class="st4" cx="140.78" cy="66.08" r="1.01"/>
		<circle class="st4" cx="133.36" cy="66.08" r="1.01"/>
		<circle class="st4" cx="125.94" cy="66.08" r="1.01"/>
		<circle class="st4" cx="148.2" cy="59.54" r="1.01"/>
		<circle class="st4" cx="140.78" cy="59.54" r="1.01"/>
		<circle class="st4" cx="133.36" cy="59.54" r="1.01"/>
		<circle class="st4" cx="125.94" cy="59.54" r="1.01"/>
		<circle class="st4" cx="155.54" cy="72.62" r="1.01"/>
		<circle class="st4" cx="155.54" cy="66.08" r="1.01"/>
		<circle class="st4" cx="155.54" cy="59.54" r="1.01"/>
	</g>
</g>
</svg>
